<?xml version="1.0" standalone="no"?>
<!DOCTYPE svg PUBLIC "-//W3C//DTD SVG 20010904//EN"
 "http://www.w3.org/TR/2001/REC-SVG-20010904/DTD/svg10.dtd">
<svg version="1.0" xmlns="http://www.w3.org/2000/svg"
 width="296.000000pt" height="296.000000pt" viewBox="0 0 296.000000 296.000000"
 preserveAspectRatio="xMidYMid meet">
<metadata>
Created by potrace 1.11, written by Peter Selinger 2001-2013
</metadata>
<g transform="translate(0.000000,296.000000) scale(0.100000,-0.100000)"
fill="#000000" stroke="none">
<path d="M0 1480 l0 -1160 1480 0 1480 0 0 1160 0 1160 -1480 0 -1480 0 0
-1160z m2133 329 l37 -10 0 -64 c0 -36 -1 -65 -2 -65 -2 0 -25 7 -52 15 -64
20 -176 19 -224 0 -82 -35 -122 -102 -122 -205 0 -81 24 -137 75 -176 32 -24
49 -29 112 -32 93 -5 103 2 103 79 l0 59 -70 0 -70 0 0 60 0 60 140 0 140 0 0
-170 0 -169 -67 -22 c-96 -30 -246 -30 -323 -1 -107 42 -172 124 -191 244 -34
210 92 379 306 412 40 6 161 -3 208 -15z m-1694 -201 c40 -117 75 -228 78
-245 3 -18 8 -33 12 -33 3 1 42 110 87 243 l81 242 106 3 107 3 0 -336 0 -335
-70 0 -70 0 0 273 0 272 -89 -262 c-49 -144 -92 -267 -96 -273 -3 -5 -32 -10
-63 -10 l-57 0 -64 183 c-35 100 -68 184 -72 187 -10 7 -49 125 -49 150 0 11
-3 20 -7 20 -5 0 -7 -121 -5 -270 l3 -270 -66 0 -65 0 0 335 0 335 113 0 112
0 74 -212z m959 11 c112 -43 167 -177 128 -311 -12 -41 -27 -65 -59 -95 -53
-49 -102 -67 -188 -67 -84 0 -148 24 -193 74 -43 48 -59 104 -54 190 6 114 62
185 168 214 57 16 148 14 198 -5z m1276 -4 c46 -19 102 -78 118 -124 7 -20 12
-63 12 -96 0 -158 -92 -249 -254 -248 -163 0 -249 83 -250 241 0 106 29 165
107 213 64 40 190 46 267 14z"/>
<path d="M1221 1514 c-67 -47 -67 -201 0 -248 33 -23 100 -21 132 4 55 44 57
190 2 238 -32 27 -99 30 -134 6z"/>
<path d="M2492 1514 c-34 -23 -52 -67 -52 -124 0 -94 38 -140 116 -140 72 0
104 43 104 140 0 66 -18 113 -49 130 -29 15 -93 12 -119 -6z"/>
</g>
</svg>
